<?xml version="1.0" encoding="UTF-8" standalone="no"?><svg xmlns="http://www.w3.org/2000/svg" xmlns:xlink="http://www.w3.org/1999/xlink" contentScriptType="application/ecmascript" contentStyleType="text/css" height="623px" preserveAspectRatio="none" style="width:701px;height:623px;" version="1.1" viewBox="0 0 701 623" width="701px" zoomAndPan="magnify"><defs><filter height="300%" id="fsqn8epoj242c" width="300%" x="-1" y="-1"><feGaussianBlur result="blurOut" stdDeviation="2.0"/><feColorMatrix in="blurOut" result="blurOut2" type="matrix" values="0 0 0 0 0 0 0 0 0 0 0 0 0 0 0 0 0 0 .4 0"/><feOffset dx="4.0" dy="4.0" in="blurOut2" result="blurOut3"/><feBlend in="SourceGraphic" in2="blurOut3" mode="normal"/></filter></defs><g><!--class PhysExperiment--><rect fill="#90EE90" filter="url(#fsqn8epoj242c)" height="60.9551" id="PhysExperiment" style="stroke: #A80036; stroke-width: 1.5;" width="98" x="304.3392" y="8"/><rect fill="#90EE90" height="32" style="stroke: #A80036; stroke-width: 1.5;" width="98" x="304.3392" y="8"/><ellipse cx="319.3392" cy="24" fill="#FFC0CB" rx="11" ry="11" style="stroke: #A80036; stroke-width: 1.0;"/><path d="M319.1327,19.6655 L319.1327,23.3013 L320.1371,23.3013 Q321.3407,23.3013 321.8263,22.8945 Q322.3119,22.4878 322.3119,21.4834 Q322.3119,20.479 321.8263,20.0723 Q321.3407,19.6655 320.1371,19.6655 Z M316.6839,17.6069 L320.0457,17.6069 Q322.6107,17.6069 323.7354,18.52 Q324.8602,19.4331 324.8602,21.4834 Q324.8602,23.5337 323.7354,24.4468 Q322.6107,25.3599 320.0457,25.3599 L319.1327,25.3599 L319.1327,30 L316.6839,30 Z "/><text fill="#000000" font-family="sans-serif" font-size="12" lengthAdjust="spacingAndGlyphs" textLength="66" x="333.3392" y="28.5352">Experiment</text><line style="stroke: #A80036; stroke-width: 1.5;" x1="305.3392" x2="401.3392" y1="40" y2="40"/><text fill="#000000" font-family="sans-serif" font-size="11" lengthAdjust="spacingAndGlyphs" textLength="52" x="310.3392" y="54.6348">In the Lab</text><line style="stroke: #A80036; stroke-width: 1.5;" x1="305.3392" x2="401.3392" y1="60.9551" y2="60.9551"/><!--class Experiment--><rect fill="#FEFECE" filter="url(#fsqn8epoj242c)" height="73.9102" id="Experiment" style="stroke: #A80036; stroke-width: 1.5;" width="134" x="286.3392" y="146"/><ellipse cx="317.5392" cy="162" fill="#00FF00" rx="11" ry="11" style="stroke: #A80036; stroke-width: 1.0;"/><path d="M313.2531,155.6069 L316.1749,155.6069 L317.6525,161.0439 L319.1217,155.6069 L322.0602,155.6069 L322.0602,168 L319.9518,168 L319.9518,158.0723 L318.6403,163.4927 L316.6896,163.4927 L315.3615,158.0723 L315.3615,168 L313.2531,168 Z "/><text fill="#000000" font-family="sans-serif" font-size="12" lengthAdjust="spacingAndGlyphs" textLength="66" x="335.1392" y="166.5352">Experiment</text><line style="stroke: #A80036; stroke-width: 1.5;" x1="287.3392" x2="419.3392" y1="178" y2="178"/><text fill="#000000" font-family="sans-serif" font-size="11" lengthAdjust="spacingAndGlyphs" textLength="122" x="292.3392" y="192.6348">Experimental MetaData</text><line style="stroke: #A80036; stroke-width: 1.5;" x1="287.3392" x2="419.3392" y1="198.9551" y2="198.9551"/><ellipse cx="297.3392" cy="210.9326" fill="#84BE84" rx="3" ry="3" style="stroke: #038048; stroke-width: 1.0;"/><text fill="#000000" font-family="sans-serif" font-size="11" lengthAdjust="spacingAndGlyphs" textLength="96" x="306.3392" y="213.5898">Single Experiment</text><!--class Species--><rect fill="#FEFECE" filter="url(#fsqn8epoj242c)" height="73.9102" id="Species" style="stroke: #A80036; stroke-width: 1.5;" width="104" x="389.3392" y="297"/><ellipse cx="417.3892" cy="313" fill="#00FF00" rx="11" ry="11" style="stroke: #A80036; stroke-width: 1.0;"/><path d="M413.1031,306.6069 L416.0249,306.6069 L417.5025,312.0439 L418.9717,306.6069 L421.9102,306.6069 L421.9102,319 L419.8018,319 L419.8018,309.0723 L418.4903,314.4927 L416.5396,314.4927 L415.2115,309.0723 L415.2115,319 L413.1031,319 Z "/><text fill="#000000" font-family="sans-serif" font-size="12" lengthAdjust="spacingAndGlyphs" textLength="43" x="434.2892" y="317.5352">Species</text><line style="stroke: #A80036; stroke-width: 1.5;" x1="390.3392" x2="492.3392" y1="329" y2="329"/><text fill="#000000" font-family="sans-serif" font-size="11" lengthAdjust="spacingAndGlyphs" textLength="92" x="395.3392" y="343.6348">Species metadata</text><line style="stroke: #A80036; stroke-width: 1.5;" x1="390.3392" x2="492.3392" y1="349.9551" y2="349.9551"/><ellipse cx="400.3392" cy="361.9326" fill="#84BE84" rx="3" ry="3" style="stroke: #038048; stroke-width: 1.0;"/><text fill="#000000" font-family="sans-serif" font-size="11" lengthAdjust="spacingAndGlyphs" textLength="76" x="409.3392" y="364.5898">List of Species</text><!--class Treatment--><rect fill="#FEFECE" filter="url(#fsqn8epoj242c)" height="73.9102" id="Treatment" style="stroke: #A80036; stroke-width: 1.5;" width="123" x="230.8392" y="297"/><ellipse cx="259.7892" cy="313" fill="#00FF00" rx="11" ry="11" style="stroke: #A80036; stroke-width: 1.0;"/><path d="M255.5031,306.6069 L258.4249,306.6069 L259.9025,312.0439 L261.3717,306.6069 L264.3102,306.6069 L264.3102,319 L262.2018,319 L262.2018,309.0723 L260.8903,314.4927 L258.9396,314.4927 L257.6115,309.0723 L257.6115,319 L255.5031,319 Z "/><text fill="#000000" font-family="sans-serif" font-size="12" lengthAdjust="spacingAndGlyphs" textLength="60" x="276.8892" y="317.5352">Treatment</text><line style="stroke: #A80036; stroke-width: 1.5;" x1="231.8392" x2="352.8392" y1="329" y2="329"/><text fill="#000000" font-family="sans-serif" font-size="11" lengthAdjust="spacingAndGlyphs" textLength="107" x="236.8392" y="343.6348">Treatment MetaData</text><line style="stroke: #A80036; stroke-width: 1.5;" x1="231.8392" x2="352.8392" y1="349.9551" y2="349.9551"/><ellipse cx="241.8392" cy="361.9326" fill="#84BE84" rx="3" ry="3" style="stroke: #038048; stroke-width: 1.0;"/><text fill="#000000" font-family="sans-serif" font-size="11" lengthAdjust="spacingAndGlyphs" textLength="97" x="250.8392" y="364.5898">List of Treatments</text><!--class Measurement--><rect fill="#FEFECE" filter="url(#fsqn8epoj242c)" height="73.9102" id="Measurement" style="stroke: #A80036; stroke-width: 1.5;" width="136" x="59.3392" y="297"/><ellipse cx="86.0392" cy="313" fill="#00FF00" rx="11" ry="11" style="stroke: #A80036; stroke-width: 1.0;"/><path d="M81.7531,306.6069 L84.6749,306.6069 L86.1525,312.0439 L87.6217,306.6069 L90.5602,306.6069 L90.5602,319 L88.4518,319 L88.4518,309.0723 L87.1403,314.4927 L85.1896,314.4927 L83.8615,309.0723 L83.8615,319 L81.7531,319 Z "/><text fill="#000000" font-family="sans-serif" font-size="12" lengthAdjust="spacingAndGlyphs" textLength="78" x="102.6392" y="317.5352">Measurement</text><line style="stroke: #A80036; stroke-width: 1.5;" x1="60.3392" x2="194.3392" y1="329" y2="329"/><text fill="#000000" font-family="sans-serif" font-size="11" lengthAdjust="spacingAndGlyphs" textLength="124" x="65.3392" y="343.6348">Measurement MetaData</text><line style="stroke: #A80036; stroke-width: 1.5;" x1="60.3392" x2="194.3392" y1="349.9551" y2="349.9551"/><ellipse cx="70.3392" cy="361.9326" fill="#84BE84" rx="3" ry="3" style="stroke: #038048; stroke-width: 1.0;"/><text fill="#000000" font-family="sans-serif" font-size="11" lengthAdjust="spacingAndGlyphs" textLength="98" x="79.3392" y="364.5898">List of Measurings</text><!--class RawData--><rect fill="#90EE90" filter="url(#fsqn8epoj242c)" height="138.6855" id="RawData" style="stroke: #A80036; stroke-width: 1.5;" width="183" x="37.8392" y="461"/><rect fill="#90EE90" height="32" style="stroke: #A80036; stroke-width: 1.5;" width="183" x="37.8392" y="461"/><ellipse cx="73.5392" cy="477" fill="#DC143C" rx="11" ry="11" style="stroke: #A80036; stroke-width: 1.0;"/><path d="M73.1251,472.8149 L73.1251,480.792 L73.7892,480.792 Q75.2335,480.792 75.8478,479.8831 Q76.4621,478.9741 76.4621,476.791 Q76.4621,474.6245 75.8478,473.7197 Q75.2335,472.8149 73.7892,472.8149 Z M70.6764,470.6069 L73.2995,470.6069 Q76.3375,470.6069 77.674,472.0554 Q79.0104,473.5039 79.0104,476.791 Q79.0104,480.0864 77.674,481.5432 Q76.3375,483 73.2995,483 L70.6764,483 Z "/><text fill="#000000" font-family="sans-serif" font-size="12" lengthAdjust="spacingAndGlyphs" textLength="105" x="92.1392" y="481.5352">Raw Data DataFile</text><line style="stroke: #A80036; stroke-width: 1.5;" x1="38.8392" x2="219.8392" y1="493" y2="493"/><text fill="#000000" font-family="sans-serif" font-size="11" lengthAdjust="spacingAndGlyphs" textLength="99" x="43.8392" y="507.6348">Contains Raw Data</text><line style="stroke: #A80036; stroke-width: 1.5;" x1="38.8392" x2="219.8392" y1="513.9551" y2="513.9551"/><rect fill="#F24D5C" height="6" style="stroke: #C82930; stroke-width: 1.0;" width="6" x="45.8392" y="522.9326"/><text fill="#000000" font-family="sans-serif" font-size="11" lengthAdjust="spacingAndGlyphs" textLength="96" x="57.8392" y="528.5898">dataCite metadata</text><rect fill="#F24D5C" height="6" style="stroke: #C82930; stroke-width: 1.0;" width="6" x="45.8392" y="535.8877"/><text fill="#000000" font-family="sans-serif" font-size="11" lengthAdjust="spacingAndGlyphs" textLength="115" x="57.8392" y="541.5449">dmdScheme metadata</text><ellipse cx="48.8392" cy="551.8428" fill="#84BE84" rx="3" ry="3" style="stroke: #038048; stroke-width: 1.0;"/><text fill="#000000" font-family="sans-serif" font-size="11" lengthAdjust="spacingAndGlyphs" textLength="61" x="57.8392" y="554.5">Experiment</text><ellipse cx="48.8392" cy="564.7979" fill="#84BE84" rx="3" ry="3" style="stroke: #038048; stroke-width: 1.0;"/><text fill="#000000" font-family="sans-serif" font-size="11" lengthAdjust="spacingAndGlyphs" textLength="40" x="57.8392" y="567.4551">Species</text><ellipse cx="48.8392" cy="577.7529" fill="#84BE84" rx="3" ry="3" style="stroke: #038048; stroke-width: 1.0;"/><text fill="#000000" font-family="sans-serif" font-size="11" lengthAdjust="spacingAndGlyphs" textLength="134" x="57.8392" y="580.4102">Set of Treatment (names)</text><ellipse cx="48.8392" cy="590.708" fill="#84BE84" rx="3" ry="3" style="stroke: #038048; stroke-width: 1.0;"/><text fill="#000000" font-family="sans-serif" font-size="11" lengthAdjust="spacingAndGlyphs" textLength="157" x="57.8392" y="593.3652">Set of Measurements (names)</text><!--class DataExtraction--><rect fill="#FEFECE" filter="url(#fsqn8epoj242c)" height="73.9102" id="DataExtraction" style="stroke: #A80036; stroke-width: 1.5;" width="162" x="528.3392" y="297"/><ellipse cx="564.0392" cy="313" fill="#00FF00" rx="11" ry="11" style="stroke: #A80036; stroke-width: 1.0;"/><path d="M559.7531,306.6069 L562.6749,306.6069 L564.1525,312.0439 L565.6217,306.6069 L568.5602,306.6069 L568.5602,319 L566.4518,319 L566.4518,309.0723 L565.1403,314.4927 L563.1896,314.4927 L561.8615,309.0723 L561.8615,319 L559.7531,319 Z "/><text fill="#000000" font-family="sans-serif" font-size="12" lengthAdjust="spacingAndGlyphs" textLength="84" x="582.6392" y="317.5352">DataExtraction</text><line style="stroke: #A80036; stroke-width: 1.5;" x1="529.3392" x2="689.3392" y1="329" y2="329"/><text fill="#000000" font-family="sans-serif" font-size="11" lengthAdjust="spacingAndGlyphs" textLength="150" x="534.3392" y="343.6348">Extraction Method MetaData</text><line style="stroke: #A80036; stroke-width: 1.5;" x1="529.3392" x2="689.3392" y1="349.9551" y2="349.9551"/><ellipse cx="539.3392" cy="361.9326" fill="#84BE84" rx="3" ry="3" style="stroke: #038048; stroke-width: 1.0;"/><text fill="#000000" font-family="sans-serif" font-size="11" lengthAdjust="spacingAndGlyphs" textLength="121" x="548.3392" y="364.5898">List of DataExtractions</text><!--class ExtractedData--><rect fill="#90EE90" filter="url(#fsqn8epoj242c)" height="164.5957" id="ExtractedData" style="stroke: #A80036; stroke-width: 1.5;" width="187" x="337.8392" y="448"/><rect fill="#90EE90" height="32" style="stroke: #A80036; stroke-width: 1.5;" width="187" x="337.8392" y="448"/><ellipse cx="361.3892" cy="464" fill="#DC143C" rx="11" ry="11" style="stroke: #A80036; stroke-width: 1.0;"/><path d="M360.9751,459.8149 L360.9751,467.792 L361.6392,467.792 Q363.0835,467.792 363.6978,466.8831 Q364.3121,465.9741 364.3121,463.791 Q364.3121,461.6245 363.6978,460.7197 Q363.0835,459.8149 361.6392,459.8149 Z M358.5264,457.6069 L361.1495,457.6069 Q364.1875,457.6069 365.524,459.0554 Q366.8604,460.5039 366.8604,463.791 Q366.8604,467.0864 365.524,468.5432 Q364.1875,470 361.1495,470 L358.5264,470 Z "/><text fill="#000000" font-family="sans-serif" font-size="12" lengthAdjust="spacingAndGlyphs" textLength="136" x="377.2892" y="468.5352">Extracted Data DataFile</text><line style="stroke: #A80036; stroke-width: 1.5;" x1="338.8392" x2="523.8392" y1="480" y2="480"/><text fill="#000000" font-family="sans-serif" font-size="11" lengthAdjust="spacingAndGlyphs" textLength="129" x="343.8392" y="494.6348">Contains Extracted Data</text><line style="stroke: #A80036; stroke-width: 1.5;" x1="338.8392" x2="523.8392" y1="500.9551" y2="500.9551"/><rect fill="#F24D5C" height="6" style="stroke: #C82930; stroke-width: 1.0;" width="6" x="345.8392" y="509.9326"/><text fill="#000000" font-family="sans-serif" font-size="11" lengthAdjust="spacingAndGlyphs" textLength="96" x="357.8392" y="515.5898">dataCite metadata</text><rect fill="#F24D5C" height="6" style="stroke: #C82930; stroke-width: 1.0;" width="6" x="345.8392" y="522.8877"/><text fill="#000000" font-family="sans-serif" font-size="11" lengthAdjust="spacingAndGlyphs" textLength="115" x="357.8392" y="528.5449">dmdScheme metadata</text><rect fill="#F24D5C" height="6" style="stroke: #C82930; stroke-width: 1.0;" width="6" x="345.8392" y="535.8428"/><text fill="#000000" font-family="sans-serif" font-size="11" lengthAdjust="spacingAndGlyphs" textLength="161" x="357.8392" y="541.5">reference to Raw Data DataFile</text><ellipse cx="348.8392" cy="551.7979" fill="#84BE84" rx="3" ry="3" style="stroke: #038048; stroke-width: 1.0;"/><text fill="#000000" font-family="sans-serif" font-size="11" lengthAdjust="spacingAndGlyphs" textLength="61" x="357.8392" y="554.4551">Experiment</text><ellipse cx="348.8392" cy="564.7529" fill="#84BE84" rx="3" ry="3" style="stroke: #038048; stroke-width: 1.0;"/><text fill="#000000" font-family="sans-serif" font-size="11" lengthAdjust="spacingAndGlyphs" textLength="40" x="357.8392" y="567.4102">Species</text><ellipse cx="348.8392" cy="577.708" fill="#84BE84" rx="3" ry="3" style="stroke: #038048; stroke-width: 1.0;"/><text fill="#000000" font-family="sans-serif" font-size="11" lengthAdjust="spacingAndGlyphs" textLength="134" x="357.8392" y="580.3652">Set of Treatment (names)</text><ellipse cx="348.8392" cy="590.6631" fill="#84BE84" rx="3" ry="3" style="stroke: #038048; stroke-width: 1.0;"/><text fill="#000000" font-family="sans-serif" font-size="11" lengthAdjust="spacingAndGlyphs" textLength="151" x="357.8392" y="593.3203">Set of Measurement (names)</text><ellipse cx="348.8392" cy="603.6182" fill="#84BE84" rx="3" ry="3" style="stroke: #038048; stroke-width: 1.0;"/><text fill="#000000" font-family="sans-serif" font-size="11" lengthAdjust="spacingAndGlyphs" textLength="158" x="357.8392" y="606.2754">Set of DataExtraction (names)</text><!--link PhysExperiment to Experiment--><path d="M353.3392,82.2403 C353.3392,102.5969 353.3392,126.5498 353.3392,145.9929 " fill="none" id="PhysExperiment-Experiment" style="stroke: #A80036; stroke-width: 1.0;"/><polygon fill="#A80036" points="353.3392,69.1447,349.3392,75.1447,353.3392,81.1447,357.3392,75.1447,353.3392,69.1447" style="stroke: #A80036; stroke-width: 1.0;"/><text fill="#000000" font-family="sans-serif" font-size="13" lengthAdjust="spacingAndGlyphs" textLength="54" x="354.3392" y="112.5684">contains</text><text fill="#000000" font-family="sans-serif" font-size="13" lengthAdjust="spacingAndGlyphs" textLength="8" x="344.5142" y="89.6171">1</text><text fill="#000000" font-family="sans-serif" font-size="13" lengthAdjust="spacingAndGlyphs" textLength="34" x="316.2048" y="135.3922">many</text><!--link Experiment to Species--><path d="M381.7141,231.6888 C394.0347,252.8298 408.2337,277.194 419.6843,296.8421 " fill="none" id="Experiment-Species" style="stroke: #A80036; stroke-width: 1.0;"/><polygon fill="#A80036" points="375.092,220.3259,374.6571,227.5239,381.1342,230.6937,381.569,223.4958,375.092,220.3259" style="stroke: #A80036; stroke-width: 1.0;"/><text fill="#000000" font-family="sans-serif" font-size="13" lengthAdjust="spacingAndGlyphs" textLength="54" x="401.3392" y="263.5684">contains</text><text fill="#000000" font-family="sans-serif" font-size="13" lengthAdjust="spacingAndGlyphs" textLength="8" x="370.0323" y="240.3517">1</text><text fill="#000000" font-family="sans-serif" font-size="13" lengthAdjust="spacingAndGlyphs" textLength="34" x="378.5573" y="286.2136">many</text><!--link Experiment to Treatment--><path d="M333.3136,232.5715 C324.8568,253.5057 315.1771,277.4669 307.35,296.8421 " fill="none" id="Experiment-Treatment" style="stroke: #A80036; stroke-width: 1.0;"/><polygon fill="#A80036" points="338.2605,220.3259,332.3043,224.3908,333.7656,231.4523,339.7219,227.3874,338.2605,220.3259" style="stroke: #A80036; stroke-width: 1.0;"/><text fill="#000000" font-family="sans-serif" font-size="13" lengthAdjust="spacingAndGlyphs" textLength="54" x="326.3392" y="263.5684">contains</text><text fill="#000000" font-family="sans-serif" font-size="13" lengthAdjust="spacingAndGlyphs" textLength="8" x="327.1006" y="240.3517">1</text><text fill="#000000" font-family="sans-serif" font-size="13" lengthAdjust="spacingAndGlyphs" textLength="34" x="272.9832" y="286.2136">many</text><!--link Experiment to Measurement--><path d="M286.8445,227.4279 C253.8608,249.4657 214.4736,275.7819 183.0916,296.7495 " fill="none" id="Experiment-Measurement" style="stroke: #A80036; stroke-width: 1.0;"/><polygon fill="#A80036" points="297.7639,220.1322,290.5528,220.1396,287.7862,226.7989,294.9973,226.7915,297.7639,220.1322" style="stroke: #A80036; stroke-width: 1.0;"/><text fill="#000000" font-family="sans-serif" font-size="13" lengthAdjust="spacingAndGlyphs" textLength="54" x="248.3392" y="263.5684">contains</text><text fill="#000000" font-family="sans-serif" font-size="13" lengthAdjust="spacingAndGlyphs" textLength="8" x="279.5244" y="240.4061">1</text><text fill="#000000" font-family="sans-serif" font-size="13" lengthAdjust="spacingAndGlyphs" textLength="34" x="155.9944" y="286.3823">many</text><!--link Experiment to DataExtraction--><path d="M427.6877,226.854 C465.2461,249.0076 510.3291,275.5995 546.186,296.7495 " fill="none" id="Experiment-DataExtraction" style="stroke: #A80036; stroke-width: 1.0;"/><polygon fill="#A80036" points="416.2917,220.1322,419.4275,226.6258,426.6277,226.2287,423.4919,219.7351,416.2917,220.1322" style="stroke: #A80036; stroke-width: 1.0;"/><text fill="#000000" font-family="sans-serif" font-size="13" lengthAdjust="spacingAndGlyphs" textLength="54" x="489.3392" y="263.5684">contains</text><text fill="#000000" font-family="sans-serif" font-size="13" lengthAdjust="spacingAndGlyphs" textLength="8" x="418.4242" y="240.4061">1</text><text fill="#000000" font-family="sans-serif" font-size="13" lengthAdjust="spacingAndGlyphs" textLength="34" x="497.9087" y="286.3823">many</text><!--link Species to RawData--><path d="M411.8154,381.9589 C402.2828,394.8201 390.8948,407.9332 378.3392,418 C364.8769,428.7938 286.2824,463.6592 220.9414,491.7468 " fill="none" id="Species-RawData" style="stroke: #A80036; stroke-width: 1.0;"/><polygon fill="#A80036" points="419.3713,371.2871,412.6396,373.8726,412.4371,381.0808,419.1688,378.4954,419.3713,371.2871" style="stroke: #A80036; stroke-width: 1.0;"/><text fill="#000000" font-family="sans-serif" font-size="13" lengthAdjust="spacingAndGlyphs" textLength="54" x="396.3392" y="414.5684">contains</text><text fill="#000000" font-family="sans-serif" font-size="13" lengthAdjust="spacingAndGlyphs" textLength="8" x="406.9081" y="391.5877">1</text><text fill="#000000" font-family="sans-serif" font-size="13" lengthAdjust="spacingAndGlyphs" textLength="34" x="228.9169" y="485.9414">many</text><!--link Treatment to RawData--><path d="M218.5445,368.4471 C216.4587,369.3187 214.3872,370.1715 212.3392,371 C174.8126,386.1812 149.7803,367.9965 126.3392,401 C114.1633,418.1429 111.2817,440.0382 112.5294,460.9277 " fill="none" id="Treatment-RawData" style="stroke: #A80036; stroke-width: 1.0;"/><polygon fill="#A80036" points="230.5827,363.2862,223.492,361.974,219.5535,368.0146,226.6442,369.3268,230.5827,363.2862" style="stroke: #A80036; stroke-width: 1.0;"/><text fill="#000000" font-family="sans-serif" font-size="13" lengthAdjust="spacingAndGlyphs" textLength="54" x="127.3392" y="414.5684">contains</text><text fill="#000000" font-family="sans-serif" font-size="13" lengthAdjust="spacingAndGlyphs" textLength="8" x="214.9796" y="363.3967">1</text><text fill="#000000" font-family="sans-serif" font-size="13" lengthAdjust="spacingAndGlyphs" textLength="34" x="74.8315" y="450.1005">many</text><!--link Measurement to RawData--><path d="M48.211,371.094 C32.8434,383.7899 23.3714,399.5348 30.3392,418 C36.08,433.2135 44.9185,447.704 55,460.9178 " fill="none" id="Measurement-RawData" style="stroke: #A80036; stroke-width: 1.0;"/><polygon fill="#A80036" points="59.0476,363.1932,51.8428,363.4958,49.3511,370.2627,56.5559,369.9601,59.0476,363.1932" style="stroke: #A80036; stroke-width: 1.0;"/><text fill="#000000" font-family="sans-serif" font-size="13" lengthAdjust="spacingAndGlyphs" textLength="54" x="31.3392" y="414.5684">contains</text><text fill="#000000" font-family="sans-serif" font-size="13" lengthAdjust="spacingAndGlyphs" textLength="8" x="43.1407" y="363.1561">1</text><text fill="#000000" font-family="sans-serif" font-size="13" lengthAdjust="spacingAndGlyphs" textLength="34" x="11.0098" y="450.0895">many</text><!--link Species to ExtractedData--><path d="M468.7575,383.467 C471.033,389.2423 472.9789,395.1594 474.3392,401 C477.9127,416.343 476.7281,432.4532 473.0163,447.8968 " fill="none" id="Species-ExtractedData" style="stroke: #A80036; stroke-width: 1.0;"/><polygon fill="#A80036" points="463.3489,371.1352,462.0956,378.2366,468.1687,382.1247,469.422,375.0234,463.3489,371.1352" style="stroke: #A80036; stroke-width: 1.0;"/><text fill="#000000" font-family="sans-serif" font-size="13" lengthAdjust="spacingAndGlyphs" textLength="54" x="478.3392" y="414.5684">contains</text><text fill="#000000" font-family="sans-serif" font-size="13" lengthAdjust="spacingAndGlyphs" textLength="8" x="458.4443" y="391.4096">1</text><text fill="#000000" font-family="sans-serif" font-size="13" lengthAdjust="spacingAndGlyphs" textLength="34" x="441.2912" y="437.1917">many</text><!--link Treatment to ExtractedData--><path d="M303.3411,383.6785 C307.1047,395.4133 312.0157,407.5434 318.3392,418 C324.5706,428.3044 331.947,438.3551 339.8993,447.9409 " fill="none" id="Treatment-ExtractedData" style="stroke: #A80036; stroke-width: 1.0;"/><polygon fill="#A80036" points="299.695,371.1982,297.5381,378.0792,303.0602,382.7167,305.2171,375.8357,299.695,371.1982" style="stroke: #A80036; stroke-width: 1.0;"/><text fill="#000000" font-family="sans-serif" font-size="13" lengthAdjust="spacingAndGlyphs" textLength="54" x="319.3392" y="414.5684">contains</text><text fill="#000000" font-family="sans-serif" font-size="13" lengthAdjust="spacingAndGlyphs" textLength="8" x="292.2718" y="391.4835">1</text><text fill="#000000" font-family="sans-serif" font-size="13" lengthAdjust="spacingAndGlyphs" textLength="34" x="295.9025" y="437.2399">many</text><!--link Measurement to ExtractedData--><path d="M189.7223,378.7606 C208.119,391.6624 228.3986,405.5976 247.3392,418 C276.314,436.973 308.3727,456.9228 337.5038,474.6664 " fill="none" id="Measurement-ExtractedData" style="stroke: #A80036; stroke-width: 1.0;"/><polygon fill="#A80036" points="178.8374,371.0943,181.4395,377.8195,188.6483,378.0042,186.0461,371.279,178.8374,371.0943" style="stroke: #A80036; stroke-width: 1.0;"/><text fill="#000000" font-family="sans-serif" font-size="13" lengthAdjust="spacingAndGlyphs" textLength="54" x="248.3392" y="414.5684">contains</text><text fill="#000000" font-family="sans-serif" font-size="13" lengthAdjust="spacingAndGlyphs" textLength="8" x="179.0012" y="391.3617">1</text><text fill="#000000" font-family="sans-serif" font-size="13" lengthAdjust="spacingAndGlyphs" textLength="34" x="295.7107" y="467.8067">many</text><!--link DataExtraction to ExtractedData--><path d="M572.2479,381.4056 C562.4189,393.5237 551.6634,406.4017 541.3392,418 C532.6214,427.7938 523.3055,437.8699 513.9224,447.7783 " fill="none" id="DataExtraction-ExtractedData" style="stroke: #A80036; stroke-width: 1.0;"/><polygon fill="#A80036" points="580.6128,371.0032,573.7357,373.1723,573.0929,380.3547,579.97,378.1856,580.6128,371.0032" style="stroke: #A80036; stroke-width: 1.0;"/><text fill="#000000" font-family="sans-serif" font-size="13" lengthAdjust="spacingAndGlyphs" textLength="54" x="555.3392" y="414.5684">contains</text><text fill="#000000" font-family="sans-serif" font-size="13" lengthAdjust="spacingAndGlyphs" textLength="8" x="566.7834" y="391.5344">1</text><text fill="#000000" font-family="sans-serif" font-size="13" lengthAdjust="spacingAndGlyphs" textLength="34" x="485.7634" y="437.3431">many</text><!--
@startuml


class PhysExperiment as "Experiment" << (P,pink) >> #TECHNOLOGY {
  {field} In the Lab
}


class Experiment as "Experiment" << (M,lime) >> {
  {field} Experimental MetaData
  {method} + Single Experiment
}


class Species as "Species" << (M,lime) >> {
  {field} Species metadata
  {method} + List of Species
}


class Treatment as "Treatment" << (M,lime) >> {
  {field} Treatment MetaData
  {method} + List of Treatments
}



class Measurement as "Measurement" << (M,lime) >> {
  {field} Measurement MetaData
  {method} + List of Measurings
}

class RawData as "Raw Data DataFile" << (D,crimson) >> #TECHNOLOGY {
  {field} Contains Raw Data
  {method} - dataCite metadata
  {method} - dmdScheme metadata
  {method} + Experiment
  {method} + Species
  {method} + Set of Treatment (names)
  {method} + Set of Measurements (names)
}

class DataExtraction as "DataExtraction" << (M,lime) >> {
  {field} Extraction Method MetaData
  {method} + List of DataExtractions
}


class ExtractedData as "Extracted Data DataFile" << (D,crimson) >> #TECHNOLOGY {
  {field} Contains Extracted Data
  {method} - dataCite metadata
  {method} - dmdScheme metadata
  {method} - reference to Raw Data DataFile
  {method} + Experiment
  {method} + Species
  {method} + Set of Treatment (names)
  {method} + Set of Measurement (names)
  {method} + Set of DataExtraction (names)
}


PhysExperiment "1" *- - "many" Experiment : contains

Experiment "1" *- - "many" Species : contains
Experiment "1" *- - "many" Treatment : contains
Experiment "1" *- - "many" Measurement : contains
Experiment "1" *- - "many" DataExtraction : contains

Species "1" *- - "many" RawData : contains
Treatment "1" *- - "many" RawData : contains
Measurement "1" *- - "many" RawData : contains

Species "1" *- - "many" ExtractedData : contains
Treatment "1" *- - "many" ExtractedData : contains
Measurement "1" *- - "many" ExtractedData : contains
DataExtraction "1" *- - "many" ExtractedData : contains


@enduml

PlantUML version 1.2019.00(Sun Jan 13 16:46:42 CET 2019)
(GPL source distribution)
Java Runtime: OpenJDK Runtime Environment
JVM: OpenJDK 64-Bit Server VM
Java Version: 11.0.2+7
Operating System: Mac OS X
OS Version: 10.13.6
Default Encoding: UTF-8
Language: en
Country: CH
--></g></svg>