<?xml version="1.0" encoding="UTF-8" standalone="no"?><svg xmlns="http://www.w3.org/2000/svg" xmlns:xlink="http://www.w3.org/1999/xlink" contentScriptType="application/ecmascript" contentStyleType="text/css" height="797px" preserveAspectRatio="none" style="width:426px;height:797px;" version="1.1" viewBox="0 0 426 797" width="426px" zoomAndPan="magnify"><defs><filter height="300%" id="fco0pi4cxem65" width="300%" x="-1" y="-1"><feGaussianBlur result="blurOut" stdDeviation="2.0"/><feColorMatrix in="blurOut" result="blurOut2" type="matrix" values="0 0 0 0 0 0 0 0 0 0 0 0 0 0 0 0 0 0 .4 0"/><feOffset dx="4.0" dy="4.0" in="blurOut2" result="blurOut3"/><feBlend in="SourceGraphic" in2="blurOut3" mode="normal"/></filter></defs><g><ellipse cx="209.5" cy="20" fill="#000000" filter="url(#fco0pi4cxem65)" rx="10" ry="10" style="stroke: none; stroke-width: 1.0;"/><rect fill="#FEFECE" filter="url(#fco0pi4cxem65)" height="52.9766" style="stroke: #A80036; stroke-width: 1.5;" width="399" x="10" y="50"/><line style="stroke: #A80036; stroke-width: 1.5;" x1="15" x2="15" y1="50" y2="102.9766"/><line style="stroke: #A80036; stroke-width: 1.5;" x1="404" x2="404" y1="50" y2="102.9766"/><text fill="#000000" font-family="sans-serif" font-size="16" font-weight="bold" lengthAdjust="spacingAndGlyphs" textLength="44" x="20" y="75.4688">Open</text><a href="https://rmkrug.shinyapps.io/dmd_app/" target="_top" title="https://rmkrug.shinyapps.io/dmd_app/" xlink:actuate="onRequest" xlink:href="https://rmkrug.shinyapps.io/dmd_app/" xlink:show="new" xlink:title="https://rmkrug.shinyapps.io/dmd_app/" xlink:type="simple"><text fill="#0000FF" font-family="sans-serif" font-size="16" font-weight="bold" lengthAdjust="spacingAndGlyphs" text-decoration="underline" textLength="330" x="69" y="75.4688">https://rmkrug.shinyapps.io/dmd_app/</text></a><line style="stroke: #A80036; stroke-width: 1.0; stroke-dasharray: 1.0,2.0;" x1="10" x2="182" y1="85.9102" y2="85.9102"/><text fill="#000000" font-family="sans-serif" font-size="12" lengthAdjust="spacingAndGlyphs" textLength="55" x="182" y="89.9453">BROWSER</text><line style="stroke: #A80036; stroke-width: 1.0; stroke-dasharray: 1.0,2.0;" x1="237" x2="409" y1="85.9102" y2="85.9102"/><rect fill="#FEFECE" filter="url(#fco0pi4cxem65)" height="66.9453" rx="12.5" ry="12.5" style="stroke: #A80036; stroke-width: 1.5;" width="153" x="133" y="122.9766"/><text fill="#000000" font-family="sans-serif" font-size="16" font-weight="bold" lengthAdjust="spacingAndGlyphs" textLength="115" x="143" y="148.4453">Select scheme</text><line style="stroke: #A80036; stroke-width: 1.0; stroke-dasharray: 1.0,2.0;" x1="133" x2="182" y1="158.8867" y2="158.8867"/><text fill="#000000" font-family="sans-serif" font-size="12" lengthAdjust="spacingAndGlyphs" textLength="55" x="182" y="162.9219">BROWSER</text><line style="stroke: #A80036; stroke-width: 1.0; stroke-dasharray: 1.0,2.0;" x1="237" x2="286" y1="158.8867" y2="158.8867"/><text fill="#000000" font-family="monospace" font-size="12" lengthAdjust="spacingAndGlyphs" textLength="133" x="143" y="177.0918">Availabe dmdSchemes</text><rect fill="#FEFECE" filter="url(#fco0pi4cxem65)" height="52.9766" rx="12.5" ry="12.5" style="stroke: #A80036; stroke-width: 1.5;" width="211" x="104" y="209.9219"/><text fill="#000000" font-family="sans-serif" font-size="16" font-weight="bold" lengthAdjust="spacingAndGlyphs" textLength="191" x="114" y="235.3906">Download New Scheme</text><line style="stroke: #A80036; stroke-width: 1.0; stroke-dasharray: 1.0,2.0;" x1="104" x2="182" y1="245.832" y2="245.832"/><text fill="#000000" font-family="sans-serif" font-size="12" lengthAdjust="spacingAndGlyphs" textLength="55" x="182" y="249.8672">BROWSER</text><line style="stroke: #A80036; stroke-width: 1.0; stroke-dasharray: 1.0,2.0;" x1="237" x2="315" y1="245.832" y2="245.832"/><rect fill="#FEFECE" filter="url(#fco0pi4cxem65)" height="52.9766" rx="12.5" ry="12.5" style="stroke: #A80036; stroke-width: 1.5;" width="358" x="30.5" y="326.8984"/><text fill="#000000" font-family="sans-serif" font-size="16" font-weight="bold" lengthAdjust="spacingAndGlyphs" textLength="338" x="40.5" y="352.3672">Enter / Edit metadata in downloaded xlsx</text><line style="stroke: #A80036; stroke-width: 1.0; stroke-dasharray: 1.0,2.0;" x1="30.5" x2="84" y1="362.8086" y2="362.8086"/><text fill="#000000" font-family="sans-serif" font-size="12" lengthAdjust="spacingAndGlyphs" textLength="251" x="84" y="366.8438">Excel, Pages, Libre Office, Google Docs, etc</text><line style="stroke: #A80036; stroke-width: 1.0; stroke-dasharray: 1.0,2.0;" x1="335" x2="388.5" y1="362.8086" y2="362.8086"/><rect fill="#FEFECE" filter="url(#fco0pi4cxem65)" height="52.9766" style="stroke: #A80036; stroke-width: 1.5;" width="344" x="37.5" y="399.875"/><line style="stroke: #A80036; stroke-width: 1.5;" x1="42.5" x2="42.5" y1="399.875" y2="452.8516"/><line style="stroke: #A80036; stroke-width: 1.5;" x1="376.5" x2="376.5" y1="399.875" y2="452.8516"/><text fill="#000000" font-family="sans-serif" font-size="16" font-weight="bold" lengthAdjust="spacingAndGlyphs" textLength="324" x="47.5" y="425.3438">Upload Spreadsheet containig Metadata</text><line style="stroke: #A80036; stroke-width: 1.0; stroke-dasharray: 1.0,2.0;" x1="37.5" x2="182" y1="435.7852" y2="435.7852"/><text fill="#000000" font-family="sans-serif" font-size="12" lengthAdjust="spacingAndGlyphs" textLength="55" x="182" y="439.8203">BROWSER</text><line style="stroke: #A80036; stroke-width: 1.0; stroke-dasharray: 1.0,2.0;" x1="237" x2="381.5" y1="435.7852" y2="435.7852"/><rect fill="#FEFECE" filter="url(#fco0pi4cxem65)" height="52.9766" style="stroke: #A80036; stroke-width: 1.5;" width="155" x="132" y="480.3516"/><line style="stroke: #A80036; stroke-width: 1.5;" x1="137" x2="137" y1="480.3516" y2="533.3281"/><line style="stroke: #A80036; stroke-width: 1.5;" x1="282" x2="282" y1="480.3516" y2="533.3281"/><text fill="#000000" font-family="sans-serif" font-size="16" font-weight="bold" lengthAdjust="spacingAndGlyphs" textLength="135" x="142" y="505.8203">Upload Datafiles</text><line style="stroke: #A80036; stroke-width: 1.0; stroke-dasharray: 1.0,2.0;" x1="132" x2="182" y1="516.2617" y2="516.2617"/><text fill="#000000" font-family="sans-serif" font-size="12" lengthAdjust="spacingAndGlyphs" textLength="55" x="182" y="520.2969">BROWSER</text><line style="stroke: #A80036; stroke-width: 1.0; stroke-dasharray: 1.0,2.0;" x1="237" x2="287" y1="516.2617" y2="516.2617"/><rect fill="#FEFECE" filter="url(#fco0pi4cxem65)" height="52.9766" rx="12.5" ry="12.5" style="stroke: #A80036; stroke-width: 1.5;" width="327" x="46" y="553.3281"/><text fill="#000000" font-family="sans-serif" font-size="16" font-weight="bold" lengthAdjust="spacingAndGlyphs" textLength="307" x="56" y="578.7969">Validation metadata and create report</text><line style="stroke: #A80036; stroke-width: 1.0; stroke-dasharray: 1.0,2.0;" x1="46" x2="182" y1="589.2383" y2="589.2383"/><text fill="#000000" font-family="sans-serif" font-size="12" lengthAdjust="spacingAndGlyphs" textLength="55" x="182" y="593.2734">BROWSER</text><line style="stroke: #A80036; stroke-width: 1.0; stroke-dasharray: 1.0,2.0;" x1="237" x2="373" y1="589.2383" y2="589.2383"/><polygon fill="#FEFECE" filter="url(#fco0pi4cxem65)" points="209.5,282.8984,221.5,294.8984,209.5,306.8984,197.5,294.8984,209.5,282.8984" style="stroke: #A80036; stroke-width: 1.5;"/><polygon fill="#FEFECE" filter="url(#fco0pi4cxem65)" points="156.5,626.3047,262.5,626.3047,274.5,638.3047,262.5,650.3047,156.5,650.3047,144.5,638.3047,156.5,626.3047" style="stroke: #A80036; stroke-width: 1.5;"/><text fill="#000000" font-family="sans-serif" font-size="11" lengthAdjust="spacingAndGlyphs" textLength="106" x="156.5" y="642.4619">errors or warnings?</text><text fill="#000000" font-family="sans-serif" font-size="11" lengthAdjust="spacingAndGlyphs" textLength="18" x="274.5" y="635.9844">yes</text><rect fill="#FEFECE" filter="url(#fco0pi4cxem65)" height="52.9766" rx="12.5" ry="12.5" style="stroke: #A80036; stroke-width: 1.5;" width="317" x="51" y="691.5801"/><text fill="#000000" font-family="sans-serif" font-size="16" font-weight="bold" lengthAdjust="spacingAndGlyphs" textLength="297" x="61" y="717.0488">Export Uploaded Spreadsheet to xml</text><line style="stroke: #A80036; stroke-width: 1.0; stroke-dasharray: 1.0,2.0;" x1="51" x2="182" y1="727.4902" y2="727.4902"/><text fill="#000000" font-family="sans-serif" font-size="12" lengthAdjust="spacingAndGlyphs" textLength="55" x="182" y="731.5254">BROWSER</text><line style="stroke: #A80036; stroke-width: 1.0; stroke-dasharray: 1.0,2.0;" x1="237" x2="368" y1="727.4902" y2="727.4902"/><ellipse cx="209.5" cy="775.5566" fill="#FFFFFF" filter="url(#fco0pi4cxem65)" rx="11" ry="11" style="stroke: #000000; stroke-width: 1.0;"/><ellipse cx="209.5" cy="775.5566" fill="#000000" rx="6" ry="6" style="stroke: #7F7F7F; stroke-width: 1.0;"/><line style="stroke: #A80036; stroke-width: 1.5;" x1="209.5" x2="209.5" y1="30" y2="50"/><polygon fill="#A80036" points="205.5,40,209.5,50,213.5,40,209.5,44" style="stroke: #A80036; stroke-width: 1.0;"/><line style="stroke: #A80036; stroke-width: 1.5;" x1="209.5" x2="209.5" y1="102.9766" y2="122.9766"/><polygon fill="#A80036" points="205.5,112.9766,209.5,122.9766,213.5,112.9766,209.5,116.9766" style="stroke: #A80036; stroke-width: 1.0;"/><line style="stroke: #A80036; stroke-width: 1.5;" x1="209.5" x2="209.5" y1="189.9219" y2="209.9219"/><polygon fill="#A80036" points="205.5,199.9219,209.5,209.9219,213.5,199.9219,209.5,203.9219" style="stroke: #A80036; stroke-width: 1.0;"/><line style="stroke: #A80036; stroke-width: 1.5;" x1="209.5" x2="209.5" y1="379.875" y2="399.875"/><polygon fill="#A80036" points="205.5,389.875,209.5,399.875,213.5,389.875,209.5,393.875" style="stroke: #A80036; stroke-width: 1.0;"/><line style="stroke: #A80036; stroke-width: 1.5;" x1="209.5" x2="209.5" y1="452.8516" y2="480.3516"/><polygon fill="#A80036" points="205.5,470.3516,209.5,480.3516,213.5,470.3516,209.5,474.3516" style="stroke: #A80036; stroke-width: 1.0;"/><line style="stroke: #A80036; stroke-width: 1.5;" x1="209.5" x2="209.5" y1="533.3281" y2="553.3281"/><polygon fill="#A80036" points="205.5,543.3281,209.5,553.3281,213.5,543.3281,209.5,547.3281" style="stroke: #A80036; stroke-width: 1.0;"/><line style="stroke: #A80036; stroke-width: 1.5;" x1="209.5" x2="209.5" y1="306.8984" y2="326.8984"/><polygon fill="#A80036" points="205.5,316.8984,209.5,326.8984,213.5,316.8984,209.5,320.8984" style="stroke: #A80036; stroke-width: 1.0;"/><line style="stroke: #A80036; stroke-width: 1.5;" x1="274.5" x2="400.5" y1="638.3047" y2="638.3047"/><polygon fill="#A80036" points="396.5,472.8516,400.5,462.8516,404.5,472.8516,400.5,468.8516" style="stroke: #A80036; stroke-width: 1.5;"/><line style="stroke: #A80036; stroke-width: 1.5;" x1="400.5" x2="400.5" y1="294.8984" y2="638.3047"/><line style="stroke: #A80036; stroke-width: 1.5;" x1="400.5" x2="221.5" y1="294.8984" y2="294.8984"/><polygon fill="#A80036" points="231.5,290.8984,221.5,294.8984,231.5,298.8984,227.5,294.8984" style="stroke: #A80036; stroke-width: 1.0;"/><line style="stroke: #A80036; stroke-width: 1.5;" x1="209.5" x2="209.5" y1="606.3047" y2="626.3047"/><polygon fill="#A80036" points="205.5,616.3047,209.5,626.3047,213.5,616.3047,209.5,620.3047" style="stroke: #A80036; stroke-width: 1.0;"/><line style="stroke: #A80036; stroke-width: 1.5;" x1="209.5" x2="209.5" y1="262.8984" y2="282.8984"/><polygon fill="#A80036" points="205.5,272.8984,209.5,282.8984,213.5,272.8984,209.5,276.8984" style="stroke: #A80036; stroke-width: 1.0;"/><line style="stroke: #A80036; stroke-width: 1.5;" x1="209.5" x2="209.5" y1="650.3047" y2="691.5801"/><polygon fill="#A80036" points="205.5,681.5801,209.5,691.5801,213.5,681.5801,209.5,685.5801" style="stroke: #A80036; stroke-width: 1.0;"/><text fill="#000000" font-family="sans-serif" font-size="11" lengthAdjust="spacingAndGlyphs" textLength="14" x="213.5" y="671.7598">no</text><line style="stroke: #A80036; stroke-width: 1.5;" x1="209.5" x2="209.5" y1="744.5566" y2="764.5566"/><polygon fill="#A80036" points="205.5,754.5566,209.5,764.5566,213.5,754.5566,209.5,758.5566" style="stroke: #A80036; stroke-width: 1.0;"/><!--MD5=[b0dc14322e55edf54b7329cf67fce1b4]
@startuml


start
''''''''''''
:= Open [[https://rmkrug.shinyapps.io/dmd_app/]]
..BROWSER..|
''''''''''''
:= Select scheme 
..BROWSER..
""Availabe dmdSchemes"";
''''''''''''
:= Download New Scheme
..BROWSER..;
''''''''''''
repeat
  := Enter / Edit metadata in downloaded xlsx
  ..Excel, Pages, Libre Office, Google Docs, etc..;
  := Upload Spreadsheet containig Metadata
  ..BROWSER..|
  := Upload Datafiles
  ..BROWSER..|
  := Validation metadata and create report
  ..BROWSER..;
repeat while (errors or warnings?) is (yes)
-> no;
''''''''''''
:= Export Uploaded Spreadsheet to xml
..BROWSER..;
''''''''''''
stop

@enduml

@startuml


start
:= Open [[https://rmkrug.shinyapps.io/dmd_app/]]
..BROWSER..|
:= Select scheme 
..BROWSER..
""Availabe dmdSchemes"";
:= Download New Scheme
..BROWSER..;
repeat
  := Enter / Edit metadata in downloaded xlsx
  ..Excel, Pages, Libre Office, Google Docs, etc..;
  := Upload Spreadsheet containig Metadata
  ..BROWSER..|
  := Upload Datafiles
  ..BROWSER..|
  := Validation metadata and create report
  ..BROWSER..;
repeat while (errors or warnings?) is (yes)
-> no;
:= Export Uploaded Spreadsheet to xml
..BROWSER..;
stop

@enduml

PlantUML version 1.2020.12(Sat Jun 06 12:54:15 CEST 2020)
(GPL source distribution)
Java Runtime: OpenJDK Runtime Environment
JVM: OpenJDK 64-Bit Server VM
Default Encoding: UTF-8
Language: en
Country: FR
--></g></svg>