<?xml version="1.0" encoding="UTF-8" standalone="no"?><svg xmlns="http://www.w3.org/2000/svg" xmlns:xlink="http://www.w3.org/1999/xlink" contentScriptType="application/ecmascript" contentStyleType="text/css" height="912px" preserveAspectRatio="none" style="width:435px;height:912px;" version="1.1" viewBox="0 0 435 912" width="435px" zoomAndPan="magnify"><defs><filter height="300%" id="faxg9wy18jn33" width="300%" x="-1" y="-1"><feGaussianBlur result="blurOut" stdDeviation="2.0"/><feColorMatrix in="blurOut" result="blurOut2" type="matrix" values="0 0 0 0 0 0 0 0 0 0 0 0 0 0 0 0 0 0 .4 0"/><feOffset dx="4.0" dy="4.0" in="blurOut2" result="blurOut3"/><feBlend in="SourceGraphic" in2="blurOut3" mode="normal"/></filter></defs><g><ellipse cx="216.5" cy="20" fill="#000000" filter="url(#faxg9wy18jn33)" rx="10" ry="10" style="stroke: none; stroke-width: 1.0;"/><rect fill="#FEFECE" filter="url(#faxg9wy18jn33)" height="80.9141" style="stroke: #A80036; stroke-width: 1.5;" width="413" x="10" y="50"/><line style="stroke: #A80036; stroke-width: 1.5;" x1="15" x2="15" y1="50" y2="130.9141"/><line style="stroke: #A80036; stroke-width: 1.5;" x1="418" x2="418" y1="50" y2="130.9141"/><text fill="#000000" font-family="sans-serif" font-size="16" font-weight="bold" lengthAdjust="spacingAndGlyphs" textLength="393" x="20" y="75.4688">Install and load the `dmdScheme` package in R</text><line style="stroke: #A80036; stroke-width: 1.0; stroke-dasharray: 1.0,2.0;" x1="10" x2="212.5" y1="85.9102" y2="85.9102"/><text fill="#000000" font-family="sans-serif" font-size="12" lengthAdjust="spacingAndGlyphs" textLength="8" x="212.5" y="89.9453">R</text><line style="stroke: #A80036; stroke-width: 1.0; stroke-dasharray: 1.0,2.0;" x1="220.5" x2="423" y1="85.9102" y2="85.9102"/><text fill="#000000" font-family="monospace" font-size="12" lengthAdjust="spacingAndGlyphs" textLength="203" x="20" y="104.1152">install.packages("dmdScheme")</text><text fill="#000000" font-family="monospace" font-size="12" lengthAdjust="spacingAndGlyphs" textLength="140" x="20" y="118.084">library("dmdScheme")</text><rect fill="#FEFECE" filter="url(#faxg9wy18jn33)" height="66.9453" style="stroke: #A80036; stroke-width: 1.5;" width="251" x="91" y="150.9141"/><line style="stroke: #A80036; stroke-width: 1.5;" x1="96" x2="96" y1="150.9141" y2="217.8594"/><line style="stroke: #A80036; stroke-width: 1.5;" x1="337" x2="337" y1="150.9141" y2="217.8594"/><text fill="#000000" font-family="sans-serif" font-size="16" font-weight="bold" lengthAdjust="spacingAndGlyphs" textLength="231" x="101" y="176.3828">Start the included shiny app</text><line style="stroke: #A80036; stroke-width: 1.0; stroke-dasharray: 1.0,2.0;" x1="91" x2="212.5" y1="186.8242" y2="186.8242"/><text fill="#000000" font-family="sans-serif" font-size="12" lengthAdjust="spacingAndGlyphs" textLength="8" x="212.5" y="190.8594">R</text><line style="stroke: #A80036; stroke-width: 1.0; stroke-dasharray: 1.0,2.0;" x1="220.5" x2="342" y1="186.8242" y2="186.8242"/><text fill="#000000" font-family="monospace" font-size="12" lengthAdjust="spacingAndGlyphs" textLength="63" x="101" y="205.0293">run_app()</text><rect fill="#FEFECE" filter="url(#faxg9wy18jn33)" height="66.9453" rx="12.5" ry="12.5" style="stroke: #A80036; stroke-width: 1.5;" width="153" x="140" y="237.8594"/><text fill="#000000" font-family="sans-serif" font-size="16" font-weight="bold" lengthAdjust="spacingAndGlyphs" textLength="115" x="150" y="263.3281">Select scheme</text><line style="stroke: #A80036; stroke-width: 1.0; stroke-dasharray: 1.0,2.0;" x1="140" x2="189" y1="273.7695" y2="273.7695"/><text fill="#000000" font-family="sans-serif" font-size="12" lengthAdjust="spacingAndGlyphs" textLength="55" x="189" y="277.8047">BROWSER</text><line style="stroke: #A80036; stroke-width: 1.0; stroke-dasharray: 1.0,2.0;" x1="244" x2="293" y1="273.7695" y2="273.7695"/><text fill="#000000" font-family="monospace" font-size="12" lengthAdjust="spacingAndGlyphs" textLength="133" x="150" y="291.9746">Availabe dmdSchemes</text><rect fill="#FEFECE" filter="url(#faxg9wy18jn33)" height="52.9766" rx="12.5" ry="12.5" style="stroke: #A80036; stroke-width: 1.5;" width="211" x="111" y="324.8047"/><text fill="#000000" font-family="sans-serif" font-size="16" font-weight="bold" lengthAdjust="spacingAndGlyphs" textLength="191" x="121" y="350.2734">Download New Scheme</text><line style="stroke: #A80036; stroke-width: 1.0; stroke-dasharray: 1.0,2.0;" x1="111" x2="189" y1="360.7148" y2="360.7148"/><text fill="#000000" font-family="sans-serif" font-size="12" lengthAdjust="spacingAndGlyphs" textLength="55" x="189" y="364.75">BROWSER</text><line style="stroke: #A80036; stroke-width: 1.0; stroke-dasharray: 1.0,2.0;" x1="244" x2="322" y1="360.7148" y2="360.7148"/><rect fill="#FEFECE" filter="url(#faxg9wy18jn33)" height="52.9766" rx="12.5" ry="12.5" style="stroke: #A80036; stroke-width: 1.5;" width="358" x="37.5" y="441.7813"/><text fill="#000000" font-family="sans-serif" font-size="16" font-weight="bold" lengthAdjust="spacingAndGlyphs" textLength="338" x="47.5" y="467.25">Enter / Edit metadata in downloaded xlsx</text><line style="stroke: #A80036; stroke-width: 1.0; stroke-dasharray: 1.0,2.0;" x1="37.5" x2="91" y1="477.6914" y2="477.6914"/><text fill="#000000" font-family="sans-serif" font-size="12" lengthAdjust="spacingAndGlyphs" textLength="251" x="91" y="481.7266">Excel, Pages, Libre Office, Google Docs, etc</text><line style="stroke: #A80036; stroke-width: 1.0; stroke-dasharray: 1.0,2.0;" x1="342" x2="395.5" y1="477.6914" y2="477.6914"/><rect fill="#FEFECE" filter="url(#faxg9wy18jn33)" height="52.9766" style="stroke: #A80036; stroke-width: 1.5;" width="344" x="44.5" y="514.7578"/><line style="stroke: #A80036; stroke-width: 1.5;" x1="49.5" x2="49.5" y1="514.7578" y2="567.7344"/><line style="stroke: #A80036; stroke-width: 1.5;" x1="383.5" x2="383.5" y1="514.7578" y2="567.7344"/><text fill="#000000" font-family="sans-serif" font-size="16" font-weight="bold" lengthAdjust="spacingAndGlyphs" textLength="324" x="54.5" y="540.2266">Upload Spreadsheet containig Metadata</text><line style="stroke: #A80036; stroke-width: 1.0; stroke-dasharray: 1.0,2.0;" x1="44.5" x2="189" y1="550.668" y2="550.668"/><text fill="#000000" font-family="sans-serif" font-size="12" lengthAdjust="spacingAndGlyphs" textLength="55" x="189" y="554.7031">BROWSER</text><line style="stroke: #A80036; stroke-width: 1.0; stroke-dasharray: 1.0,2.0;" x1="244" x2="388.5" y1="550.668" y2="550.668"/><rect fill="#FEFECE" filter="url(#faxg9wy18jn33)" height="52.9766" style="stroke: #A80036; stroke-width: 1.5;" width="155" x="139" y="595.2344"/><line style="stroke: #A80036; stroke-width: 1.5;" x1="144" x2="144" y1="595.2344" y2="648.2109"/><line style="stroke: #A80036; stroke-width: 1.5;" x1="289" x2="289" y1="595.2344" y2="648.2109"/><text fill="#000000" font-family="sans-serif" font-size="16" font-weight="bold" lengthAdjust="spacingAndGlyphs" textLength="135" x="149" y="620.7031">Upload Datafiles</text><line style="stroke: #A80036; stroke-width: 1.0; stroke-dasharray: 1.0,2.0;" x1="139" x2="189" y1="631.1445" y2="631.1445"/><text fill="#000000" font-family="sans-serif" font-size="12" lengthAdjust="spacingAndGlyphs" textLength="55" x="189" y="635.1797">BROWSER</text><line style="stroke: #A80036; stroke-width: 1.0; stroke-dasharray: 1.0,2.0;" x1="244" x2="294" y1="631.1445" y2="631.1445"/><rect fill="#FEFECE" filter="url(#faxg9wy18jn33)" height="52.9766" rx="12.5" ry="12.5" style="stroke: #A80036; stroke-width: 1.5;" width="310" x="61.5" y="668.2109"/><text fill="#000000" font-family="sans-serif" font-size="16" font-weight="bold" lengthAdjust="spacingAndGlyphs" textLength="290" x="71.5" y="693.6797">Validate metadata and create report</text><line style="stroke: #A80036; stroke-width: 1.0; stroke-dasharray: 1.0,2.0;" x1="61.5" x2="189" y1="704.1211" y2="704.1211"/><text fill="#000000" font-family="sans-serif" font-size="12" lengthAdjust="spacingAndGlyphs" textLength="55" x="189" y="708.1563">BROWSER</text><line style="stroke: #A80036; stroke-width: 1.0; stroke-dasharray: 1.0,2.0;" x1="244" x2="371.5" y1="704.1211" y2="704.1211"/><polygon fill="#FEFECE" filter="url(#faxg9wy18jn33)" points="216.5,397.7813,228.5,409.7813,216.5,421.7813,204.5,409.7813,216.5,397.7813" style="stroke: #A80036; stroke-width: 1.5;"/><polygon fill="#FEFECE" filter="url(#faxg9wy18jn33)" points="163.5,741.1875,269.5,741.1875,281.5,753.1875,269.5,765.1875,163.5,765.1875,151.5,753.1875,163.5,741.1875" style="stroke: #A80036; stroke-width: 1.5;"/><text fill="#000000" font-family="sans-serif" font-size="11" lengthAdjust="spacingAndGlyphs" textLength="106" x="163.5" y="757.3447">errors or warnings?</text><text fill="#000000" font-family="sans-serif" font-size="11" lengthAdjust="spacingAndGlyphs" textLength="18" x="281.5" y="750.8672">yes</text><rect fill="#FEFECE" filter="url(#faxg9wy18jn33)" height="52.9766" rx="12.5" ry="12.5" style="stroke: #A80036; stroke-width: 1.5;" width="317" x="58" y="806.4629"/><text fill="#000000" font-family="sans-serif" font-size="16" font-weight="bold" lengthAdjust="spacingAndGlyphs" textLength="297" x="68" y="831.9316">Export Uploaded Spreadsheet to xml</text><line style="stroke: #A80036; stroke-width: 1.0; stroke-dasharray: 1.0,2.0;" x1="58" x2="189" y1="842.373" y2="842.373"/><text fill="#000000" font-family="sans-serif" font-size="12" lengthAdjust="spacingAndGlyphs" textLength="55" x="189" y="846.4082">BROWSER</text><line style="stroke: #A80036; stroke-width: 1.0; stroke-dasharray: 1.0,2.0;" x1="244" x2="375" y1="842.373" y2="842.373"/><ellipse cx="216.5" cy="890.4395" fill="#FFFFFF" filter="url(#faxg9wy18jn33)" rx="11" ry="11" style="stroke: #000000; stroke-width: 1.0;"/><ellipse cx="216.5" cy="890.4395" fill="#000000" rx="6" ry="6" style="stroke: #7F7F7F; stroke-width: 1.0;"/><line style="stroke: #A80036; stroke-width: 1.5;" x1="216.5" x2="216.5" y1="30" y2="50"/><polygon fill="#A80036" points="212.5,40,216.5,50,220.5,40,216.5,44" style="stroke: #A80036; stroke-width: 1.0;"/><line style="stroke: #A80036; stroke-width: 1.5;" x1="216.5" x2="216.5" y1="130.9141" y2="150.9141"/><polygon fill="#A80036" points="212.5,140.9141,216.5,150.9141,220.5,140.9141,216.5,144.9141" style="stroke: #A80036; stroke-width: 1.0;"/><line style="stroke: #A80036; stroke-width: 1.5;" x1="216.5" x2="216.5" y1="217.8594" y2="237.8594"/><polygon fill="#A80036" points="212.5,227.8594,216.5,237.8594,220.5,227.8594,216.5,231.8594" style="stroke: #A80036; stroke-width: 1.0;"/><line style="stroke: #A80036; stroke-width: 1.5;" x1="216.5" x2="216.5" y1="304.8047" y2="324.8047"/><polygon fill="#A80036" points="212.5,314.8047,216.5,324.8047,220.5,314.8047,216.5,318.8047" style="stroke: #A80036; stroke-width: 1.0;"/><line style="stroke: #A80036; stroke-width: 1.5;" x1="216.5" x2="216.5" y1="494.7578" y2="514.7578"/><polygon fill="#A80036" points="212.5,504.7578,216.5,514.7578,220.5,504.7578,216.5,508.7578" style="stroke: #A80036; stroke-width: 1.0;"/><line style="stroke: #A80036; stroke-width: 1.5;" x1="216.5" x2="216.5" y1="567.7344" y2="595.2344"/><polygon fill="#A80036" points="212.5,585.2344,216.5,595.2344,220.5,585.2344,216.5,589.2344" style="stroke: #A80036; stroke-width: 1.0;"/><line style="stroke: #A80036; stroke-width: 1.5;" x1="216.5" x2="216.5" y1="648.2109" y2="668.2109"/><polygon fill="#A80036" points="212.5,658.2109,216.5,668.2109,220.5,658.2109,216.5,662.2109" style="stroke: #A80036; stroke-width: 1.0;"/><line style="stroke: #A80036; stroke-width: 1.5;" x1="216.5" x2="216.5" y1="421.7813" y2="441.7813"/><polygon fill="#A80036" points="212.5,431.7813,216.5,441.7813,220.5,431.7813,216.5,435.7813" style="stroke: #A80036; stroke-width: 1.0;"/><line style="stroke: #A80036; stroke-width: 1.5;" x1="281.5" x2="407.5" y1="753.1875" y2="753.1875"/><polygon fill="#A80036" points="403.5,587.7344,407.5,577.7344,411.5,587.7344,407.5,583.7344" style="stroke: #A80036; stroke-width: 1.5;"/><line style="stroke: #A80036; stroke-width: 1.5;" x1="407.5" x2="407.5" y1="409.7813" y2="753.1875"/><line style="stroke: #A80036; stroke-width: 1.5;" x1="407.5" x2="228.5" y1="409.7813" y2="409.7813"/><polygon fill="#A80036" points="238.5,405.7813,228.5,409.7813,238.5,413.7813,234.5,409.7813" style="stroke: #A80036; stroke-width: 1.0;"/><line style="stroke: #A80036; stroke-width: 1.5;" x1="216.5" x2="216.5" y1="721.1875" y2="741.1875"/><polygon fill="#A80036" points="212.5,731.1875,216.5,741.1875,220.5,731.1875,216.5,735.1875" style="stroke: #A80036; stroke-width: 1.0;"/><line style="stroke: #A80036; stroke-width: 1.5;" x1="216.5" x2="216.5" y1="377.7813" y2="397.7813"/><polygon fill="#A80036" points="212.5,387.7813,216.5,397.7813,220.5,387.7813,216.5,391.7813" style="stroke: #A80036; stroke-width: 1.0;"/><line style="stroke: #A80036; stroke-width: 1.5;" x1="216.5" x2="216.5" y1="765.1875" y2="806.4629"/><polygon fill="#A80036" points="212.5,796.4629,216.5,806.4629,220.5,796.4629,216.5,800.4629" style="stroke: #A80036; stroke-width: 1.0;"/><text fill="#000000" font-family="sans-serif" font-size="11" lengthAdjust="spacingAndGlyphs" textLength="14" x="220.5" y="786.6426">no</text><line style="stroke: #A80036; stroke-width: 1.5;" x1="216.5" x2="216.5" y1="859.4395" y2="879.4395"/><polygon fill="#A80036" points="212.5,869.4395,216.5,879.4395,220.5,869.4395,216.5,873.4395" style="stroke: #A80036; stroke-width: 1.0;"/><!--MD5=[de0470cca3aa9e03769736ebfc194bd9]
@startuml


start
''''''''''''
:= Install and load the `dmdScheme` package in R
..R..
""install.packages("dmdScheme")""
""library("dmdScheme")""|
:= Start the included shiny app
..R..
""run_app()""|
''''''''''''
:= Select scheme 
..BROWSER..
""Availabe dmdSchemes"";
''''''''''''
:= Download New Scheme
..BROWSER..;
''''''''''''
repeat
  := Enter / Edit metadata in downloaded xlsx
  ..Excel, Pages, Libre Office, Google Docs, etc..;
  := Upload Spreadsheet containig Metadata
  ..BROWSER..|
  := Upload Datafiles
  ..BROWSER..|
  := Validate metadata and create report
  ..BROWSER..;
repeat while (errors or warnings?) is (yes)
-> no;
''''''''''''
:= Export Uploaded Spreadsheet to xml
..BROWSER..;
''''''''''''
stop

@enduml

@startuml


start
:= Install and load the `dmdScheme` package in R
..R..
""install.packages("dmdScheme")""
""library("dmdScheme")""|
:= Start the included shiny app
..R..
""run_app()""|
:= Select scheme 
..BROWSER..
""Availabe dmdSchemes"";
:= Download New Scheme
..BROWSER..;
repeat
  := Enter / Edit metadata in downloaded xlsx
  ..Excel, Pages, Libre Office, Google Docs, etc..;
  := Upload Spreadsheet containig Metadata
  ..BROWSER..|
  := Upload Datafiles
  ..BROWSER..|
  := Validate metadata and create report
  ..BROWSER..;
repeat while (errors or warnings?) is (yes)
-> no;
:= Export Uploaded Spreadsheet to xml
..BROWSER..;
stop

@enduml

PlantUML version 1.2020.12(Sat Jun 06 12:54:15 CEST 2020)
(GPL source distribution)
Java Runtime: OpenJDK Runtime Environment
JVM: OpenJDK 64-Bit Server VM
Default Encoding: UTF-8
Language: en
Country: FR
--></g></svg>